<svg xmlns="http://www.w3.org/2000/svg" viewBox="0 0 1400 780" role="img" aria-label="LIBERO-Plus overall success">
      <defs>
        <linearGradient id="paper" x1="0" y1="0" x2="1" y2="1">
          <stop offset="0" stop-color="#fffaf0"/>
          <stop offset="0.55" stop-color="#f7efe1"/>
          <stop offset="1" stop-color="#e9d9c2"/>
        </linearGradient>
        <filter id="shadow" x="-20%" y="-20%" width="140%" height="140%">
          <feDropShadow dx="0" dy="18" stdDeviation="24" flood-color="#1c140c" flood-opacity="0.14"/>
        </filter>
        <style>
          .bg{fill:url(#paper)}
          .border{fill:none;stroke:#111;stroke-width:4}
          .kicker{font:700 24px ui-monospace, SFMono-Regular, Menlo, monospace;letter-spacing:.16em;fill:#111}
          .title{font:700 62px Georgia, 'Times New Roman', serif;fill:#111}
          .subtitle{font:400 25px ui-monospace, SFMono-Regular, Menlo, monospace;fill:#4c453c}
          .flow rect,.small-card rect,.tile{fill:#fffdf7;stroke:#111;stroke-width:3;filter:url(#shadow)}
          .flow text{font:700 24px ui-monospace, SFMono-Regular, Menlo, monospace;fill:#111}
          .flow path{stroke:#111;stroke-width:4;fill:none;marker-end:url(#arrow)}
          .small-card text{font:700 20px ui-monospace, SFMono-Regular, Menlo, monospace;fill:#111}
          .tile-text{font:700 18px ui-monospace, SFMono-Regular, Menlo, monospace;fill:#4c453c;text-anchor:middle}
          .bar{fill:#111}
          .bar-val{font:700 24px ui-monospace, SFMono-Regular, Menlo, monospace;fill:#111;text-anchor:middle}
          .bar-name{font:700 20px ui-monospace, SFMono-Regular, Menlo, monospace;fill:#111;text-anchor:middle}
          .axis{stroke:#111;stroke-width:3}
        </style>
        <marker id="arrow" markerWidth="12" markerHeight="12" refX="8" refY="3" orient="auto" markerUnits="strokeWidth">
          <path d="M0,0 L0,6 L9,3 z" fill="#111" />
        </marker>
      </defs>
      <rect class="bg" x="0" y="0" width="1400" height="780" rx="0"/>
      <rect class="border" x="28" y="28" width="1344" height="724" rx="38"/>
      <text class="kicker" x="70" y="100">PLACEHOLDER ASSET</text>
      <text class="title" x="70" y="178">LIBERO-Plus overall success</text>
      <text class="subtitle" x="70" y="222">π0.5 pretraining comparison</text>
      <line class="axis" x1="180" y1="585" x2="1200" y2="585"/>
<rect class="bar" x="230" y="319.0" width="130" height="266.0" rx="18"/>
<text class="bar-val" x="295.0" y="299.0">66.5</text>
<text class="bar-name" x="295.0" y="633">vanilla</text>
<rect class="bar" x="430" y="297.0" width="130" height="288.0" rx="18"/>
<text class="bar-val" x="495.0" y="277.0">72.0</text>
<text class="bar-name" x="495.0" y="633">AXIS-25</text>
<rect class="bar" x="630" y="284.6" width="130" height="300.4" rx="18"/>
<text class="bar-val" x="695.0" y="264.6">75.1</text>
<text class="bar-name" x="695.0" y="633">AXIS-50</text>
<rect class="bar" x="830" y="267.4" width="130" height="317.6" rx="18"/>
<text class="bar-val" x="895.0" y="247.4">79.4</text>
<text class="bar-name" x="895.0" y="633">AXIS-100</text>
<rect class="bar" x="1030" y="355.0" width="130" height="230.0" rx="18"/>
<text class="bar-val" x="1095.0" y="335.0">57.5</text>
<text class="bar-name" x="1095.0" y="633">RC ctrl</text>
      
        <g class="small-card">
          <rect x="70.0" y="530.0" width="406.7" height="70" rx="18" />
          <text x="92.0" y="573.0">vanilla 66.5</text>
        </g>
        <g class="small-card">
          <rect x="491.7" y="530.0" width="406.7" height="70" rx="18" />
          <text x="513.7" y="573.0">AXIS-100 79.4</text>
        </g>
        <g class="small-card">
          <rect x="913.3" y="530.0" width="406.7" height="70" rx="18" />
          <text x="935.3" y="573.0">RoboCasa 57.5</text>
        </g>
      <text class="subtitle" x="70" y="728">Replace this SVG with your figure, video poster, or rendered pipeline asset.</text>
    </svg>