<svg preserveAspectRatio="xMidYMid meet" width="120" height="122" viewBox="0 0 120 121.672" fill="none" xmlns="http://www.w3.org/2000/svg">
<path id="Union" d="M62.454 51.547L77.5755 24.9912L81.8272 27.4799L66.7063 54.0341L110.847 28.1955L113.302 32.5065L69.1603 58.3462H120V63.3237H69.1571L95.3517 78.658L92.8972 82.9685L66.7047 67.6352L92.1903 112.392L87.9386 114.881L62.454 70.1251V121.672H57.5449V70.1234L42.4229 96.6809L38.1717 94.1921L53.2942 67.6336L9.15181 93.4754L6.69727 89.1644L50.8386 63.3237H0V58.3462H50.8359L24.6477 43.0157L27.1017 38.7046L53.2926 54.0368L27.8075 9.27987L32.0593 6.79112L57.5449 51.5486V0H62.454V51.547Z" fill="var(--fill-0, white)"/>
</svg>
