<svg width="2800" height="629" viewBox="0 0 2800 629" fill="none" xmlns="http://www.w3.org/2000/svg">
<g opacity="0.4" clip-path="url(#clip0_3881_586)">
<path d="M3367.7 473.582C3367.7 473.582 2444.41 811.247 2033.58 1101.63C1277.08 1636.35 3026.35 3059.06 2831 3374.3" stroke="url(#paint0_linear_3881_586)" stroke-width="1.56873" stroke-miterlimit="10"/>
<path d="M3331.7 445.606C3331.7 445.606 2412.2 779.926 2001.1 1068.39C1866.94 1162.52 1811.02 1284.06 1808.42 1422C1803.66 1675.54 1976.71 1983.93 2173.6 2279C2479.5 2737.43 2848.46 3158.65 2752.57 3313.39" stroke="url(#paint1_linear_3881_586)" stroke-width="1.56873" stroke-miterlimit="10"/>
<path d="M3295.7 417.625C3295.7 417.625 2379.99 748.589 1968.61 1035.15C1834.36 1128.66 1777.87 1249.1 1774.15 1385.53C1767.22 1639.2 1937.8 1947.08 2126.65 2239.63C2419.87 2693.82 2768.13 3100.83 2674.16 3252.48" stroke="url(#paint2_linear_3881_586)" stroke-width="1.56873" stroke-miterlimit="10"/>
<path d="M3259.71 389.645C3259.71 389.645 2347.78 717.264 1936.13 1001.9C1801.8 1094.79 1744.71 1214.13 1739.86 1349.06C1730.76 1602.86 1898.87 1910.2 2079.7 2200.25C2360.2 2650.17 2687.79 3043.02 2595.73 3191.57" stroke="url(#paint3_linear_3881_586)" stroke-width="1.56873" stroke-miterlimit="10"/>
<path d="M3223.72 361.661C3223.72 361.661 2315.59 685.924 1903.66 968.647C1769.23 1060.91 1711.53 1179.16 1705.59 1312.58C1694.29 1566.55 1859.92 1873.27 2032.75 2160.87C2300.51 2606.45 2607.45 2985.2 2517.31 3130.66" stroke="url(#paint4_linear_3881_586)" stroke-width="1.56873" stroke-miterlimit="10"/>
<path d="M3187.73 333.685C3187.73 333.685 2283.39 654.595 1871.17 935.411C1736.66 1027.05 1678.33 1144.21 1671.32 1276.11C1657.81 1530.25 1820.96 1836.3 1985.81 2121.5C2240.82 2562.7 2527.13 2927.39 2438.91 3069.75" stroke="url(#paint5_linear_3881_586)" stroke-width="1.56873" stroke-miterlimit="10"/>
<path d="M3151.73 305.703C3151.73 305.703 2251.17 623.264 1838.69 902.164C1704.09 993.181 1645.11 1109.25 1637.04 1239.63C1621.3 1493.97 1781.96 1799.29 1938.86 2082.13C2181.11 2518.88 2446.79 2869.58 2360.48 3008.84" stroke="url(#paint6_linear_3881_586)" stroke-width="1.56873" stroke-miterlimit="10"/>
<path d="M3115.74 277.724C3115.74 277.724 2218.97 591.933 1806.21 868.919C1671.53 959.306 1611.88 1074.3 1602.77 1203.15C1584.78 1457.69 1742.98 1762.23 1891.91 2042.75C2121.4 2474.98 2366.45 2811.75 2282.07 2947.92" stroke="url(#paint7_linear_3881_586)" stroke-width="1.56873" stroke-miterlimit="10"/>
<path d="M3079.75 249.738C3079.75 249.738 2186.76 560.598 1773.73 835.674C1638.95 925.437 1578.62 1039.36 1568.49 1166.69C1548.23 1421.43 1703.97 1725.12 1844.97 2003.38C2061.67 2431.03 2286.12 2753.94 2203.65 2887.02" stroke="url(#paint8_linear_3881_586)" stroke-width="1.56873" stroke-miterlimit="10"/>
<path d="M3043.75 221.759C3043.75 221.759 2154.56 529.267 1741.25 802.428C1606.38 891.567 1545.34 1004.41 1534.22 1130.2C1511.66 1385.18 1664.94 1687.96 1798.01 1964C2001.93 2387 2205.78 2696.12 2125.23 2826.1" stroke="url(#paint9_linear_3881_586)" stroke-width="1.56873" stroke-miterlimit="10"/>
<path d="M3007.76 193.778C3007.76 193.778 2122.35 497.93 1708.77 769.188C1573.82 857.702 1512.05 969.472 1499.94 1093.74C1475.06 1348.95 1625.9 1650.74 1751.07 1924.63C1942.21 2342.9 2125.45 2638.31 2046.82 2765.19" stroke="url(#paint10_linear_3881_586)" stroke-width="1.56873" stroke-miterlimit="10"/>
<path d="M2971.76 165.797C2971.76 165.797 2090.14 466.604 1676.28 735.935C1541.23 823.826 1478.73 934.536 1465.66 1057.25C1438.45 1312.72 1586.86 1613.45 1704.12 1885.25C1882.49 2298.7 2045.11 2580.49 1968.39 2704.28" stroke="url(#paint11_linear_3881_586)" stroke-width="1.56873" stroke-miterlimit="10"/>
<path d="M2935.77 137.815C2935.77 137.815 2057.94 435.265 1643.81 702.687C1508.67 789.954 1445.4 899.594 1431.38 1020.78C1401.81 1276.49 1547.8 1576.11 1657.16 1845.87C1822.77 2254.42 1964.77 2522.66 1889.97 2643.37" stroke="url(#paint12_linear_3881_586)" stroke-width="1.56873" stroke-miterlimit="10"/>
<path d="M2899.78 109.829C2899.78 109.829 2025.73 403.935 1611.32 669.443C1476.1 756.084 1412.04 864.667 1397.1 984.307C1365.14 1240.29 1508.75 1538.7 1610.21 1806.5C1763.09 2210.05 1884.44 2464.85 1811.55 2582.45" stroke="url(#paint13_linear_3881_586)" stroke-width="1.56873" stroke-miterlimit="10"/>
<path d="M2863.78 81.8499C2863.78 81.8499 1993.52 372.599 1578.84 636.197C1443.53 722.215 1378.67 829.735 1362.83 947.825C1328.44 1204.09 1469.71 1501.21 1563.26 1767.13C1703.44 2165.57 1804.1 2407.03 1733.14 2521.54" stroke="url(#paint14_linear_3881_586)" stroke-width="1.56873" stroke-miterlimit="10"/>
<path d="M2827.79 53.8705C2827.79 53.8705 1961.32 341.268 1546.36 602.959C1410.95 688.352 1345.28 794.811 1328.55 911.361C1291.72 1167.91 1430.67 1463.67 1516.31 1727.76C1643.82 2121.01 1723.76 2349.22 1654.71 2460.64" stroke="url(#paint15_linear_3881_586)" stroke-width="1.56873" stroke-miterlimit="10"/>
<path d="M2791.8 25.8839C2791.8 25.8839 1929.12 309.937 1513.88 569.706C1378.39 654.469 1311.87 759.876 1294.28 874.877C1254.99 1131.71 1391.67 1426.02 1469.38 1688.38C1584.28 2076.33 1643.44 2291.4 1576.31 2399.72" stroke="url(#paint16_linear_3881_586)" stroke-width="1.56873" stroke-miterlimit="10"/>
<path d="M2755.81 -2.0908C2755.81 -2.0908 1896.92 278.606 1481.41 536.465C1345.83 620.61 1278.45 724.956 1260.01 838.407C1218.22 1095.53 1352.68 1388.31 1422.42 1649C1524.78 2031.54 1563.1 2233.59 1497.88 2338.81" stroke="url(#paint17_linear_3881_586)" stroke-width="1.56873" stroke-miterlimit="10"/>
<path d="M2719.81 -30.0684C2719.81 -30.0684 1864.71 247.284 1448.92 503.224C1313.25 586.737 1244.98 690.032 1225.73 801.933C1181.4 1059.35 1313.71 1350.53 1375.47 1609.64C1465.35 1986.65 1482.75 2175.77 1419.46 2277.9" stroke="url(#paint18_linear_3881_586)" stroke-width="1.56873" stroke-miterlimit="10"/>
<path d="M2683.82 -58.049C2683.82 -58.049 1832.51 215.947 1416.44 469.977C1280.68 552.866 1211.52 655.098 1191.45 765.462C1144.57 1023.18 1274.78 1312.67 1328.53 1570.26C1406.02 1941.66 1402.43 2117.96 1341.05 2217" stroke="url(#paint19_linear_3881_586)" stroke-width="1.56873" stroke-miterlimit="10"/>
<path d="M2647.82 -86.0291C2647.82 -86.0291 1800.3 184.615 1383.96 436.731C1248.11 518.997 1178.04 620.173 1157.17 728.986C1107.69 987.009 1235.9 1274.72 1281.57 1530.89C1346.77 1896.55 1322.08 2060.14 1262.62 2156.08" stroke="url(#paint20_linear_3881_586)" stroke-width="1.56873" stroke-miterlimit="10"/>
<path d="M2611.83 -114.014C2611.83 -114.014 1768.09 153.281 1351.47 403.487C1215.54 485.127 1144.53 585.249 1122.89 692.511C1070.78 950.837 1197.07 1236.7 1234.62 1491.51C1287.65 1851.34 1241.74 2002.33 1184.21 2095.18" stroke="url(#paint21_linear_3881_586)" stroke-width="1.56873" stroke-miterlimit="10"/>
<path d="M2575.83 -141.994C2575.83 -141.994 1735.89 121.949 1318.99 370.241C1182.97 451.257 1111.01 550.318 1088.61 656.035C1033.84 914.662 1158.31 1198.6 1187.67 1452.14C1228.66 1806.03 1161.41 1944.51 1105.79 2034.26" stroke="url(#paint22_linear_3881_586)" stroke-width="1.56873" stroke-miterlimit="10"/>
<path d="M2539.84 -169.971C2539.84 -169.971 1703.68 90.6221 1286.51 337.004C1150.39 417.397 1077.46 515.393 1054.34 619.566C996.867 878.495 1119.63 1160.44 1140.72 1412.77C1169.8 1760.63 1081.07 1886.7 1027.37 1973.36" stroke="url(#paint23_linear_3881_586)" stroke-width="1.56873" stroke-miterlimit="10"/>
<path d="M2503.85 -197.952C2503.85 -197.952 1671.48 59.2899 1254.03 303.757C1117.83 383.525 1043.91 480.454 1020.07 583.095C959.853 842.318 1081.04 1122.22 1093.78 1373.4C1111.1 1715.16 1000.74 1828.89 948.954 1912.45" stroke="url(#paint24_linear_3881_586)" stroke-width="1.56873" stroke-miterlimit="10"/>
<path d="M2467.86 -225.941C2467.86 -225.941 1639.27 27.9437 1221.55 270.497C1085.26 349.64 1010.32 445.504 985.786 546.598C922.795 806.107 1042.56 1083.9 1046.82 1334C1052.56 1669.57 920.398 1771.05 870.535 1851.51" stroke="url(#paint25_linear_3881_586)" stroke-width="1.56873" stroke-miterlimit="10"/>
<path d="M2431.86 -253.922C2431.86 -253.922 1607.07 -3.38132 1189.07 237.257C1052.68 315.777 976.732 410.569 951.507 510.133C885.694 769.929 1004.17 1045.59 999.874 1294.64C994.184 1623.97 840.062 1713.25 792.118 1790.61" stroke="url(#paint26_linear_3881_586)" stroke-width="1.56873" stroke-miterlimit="10"/>
<path d="M2395.86 -281.902C2395.86 -281.902 1574.86 -34.7185 1156.58 204.01C1020.11 281.899 943.112 375.627 917.235 473.655C848.566 733.724 965.924 1007.22 952.93 1255.26C936.003 1578.33 759.732 1655.43 713.695 1729.71" stroke="url(#paint27_linear_3881_586)" stroke-width="1.56873" stroke-miterlimit="10"/>
<path d="M2359.87 -309.879C2359.87 -309.879 1542.65 -66.0395 1124.1 170.768C987.544 248.038 909.486 340.682 882.952 437.183C811.379 697.519 927.798 968.838 905.974 1215.88C877.998 1532.65 679.384 1597.61 635.272 1668.79" stroke="url(#paint28_linear_3881_586)" stroke-width="1.56873" stroke-miterlimit="10"/>
<path d="M2323.88 -337.863C2323.88 -337.863 1510.45 -97.3807 1091.62 137.524C954.973 214.171 875.844 305.734 848.679 400.714C774.162 661.31 889.816 930.455 859.029 1176.52C820.195 1486.97 599.054 1539.8 556.861 1607.89" stroke="url(#paint29_linear_3881_586)" stroke-width="1.56873" stroke-miterlimit="10"/>
<path d="M2287.89 -365.84C2287.89 -365.84 1478.25 -128.708 1059.15 104.282C922.413 180.298 842.181 270.777 814.416 364.24C736.904 625.079 851.988 892.078 812.1 1137.14C762.588 1441.3 518.739 1481.99 478.465 1546.97" stroke="url(#paint30_linear_3881_586)" stroke-width="1.56873" stroke-miterlimit="10"/>
<path d="M2251.89 -393.82C2251.89 -393.82 1446.04 -160.039 1026.67 71.0418C889.841 146.439 808.506 235.823 780.128 327.771C699.574 588.828 814.293 853.726 765.133 1097.77C705.133 1395.66 438.38 1424.17 400.027 1486.07" stroke="url(#paint31_linear_3881_586)" stroke-width="1.56873" stroke-miterlimit="10"/>
<path d="M2215.9 -421.801C2215.9 -421.801 1413.84 -191.371 994.18 37.7902C857.263 112.564 774.804 200.849 745.852 291.288C662.212 552.551 776.753 815.416 718.186 1058.39C647.874 1350.08 358.047 1366.35 321.606 1425.15" stroke="url(#paint32_linear_3881_586)" stroke-width="1.56873" stroke-miterlimit="10"/>
<path d="M2179.91 -449.789C2179.91 -449.789 1381.63 -222.709 961.704 4.53571C824.698 78.6788 741.098 165.862 711.574 254.803C624.795 516.255 739.373 777.161 671.234 1019C590.786 1304.55 277.71 1308.52 243.188 1364.22" stroke="url(#paint33_linear_3881_586)" stroke-width="1.56873" stroke-miterlimit="10"/>
<path d="M2143.91 -477.77C2143.91 -477.77 1349.42 -254.041 929.22 -28.7039C792.122 44.8154 707.372 130.891 677.3 218.332C587.33 479.955 702.139 739.006 624.289 979.636C533.861 1259.15 197.377 1250.7 164.776 1303.32" stroke="url(#paint34_linear_3881_586)" stroke-width="1.56873" stroke-miterlimit="10"/>
<path d="M2107.92 -505.748C2107.92 -505.748 1317.22 -285.376 896.739 -61.9486C759.555 10.9521 673.63 95.8989 643.024 181.863C549.811 443.627 665.047 700.949 577.341 940.271C477.073 1213.86 117.045 1192.9 86.3568 1242.43" stroke="url(#paint35_linear_3881_586)" stroke-width="1.56873" stroke-miterlimit="10"/>
<path d="M2071.92 -533.725C2071.92 -533.725 1285.01 -316.697 864.26 -95.191C726.989 -22.921 639.881 60.9041 608.748 145.384C512.237 407.259 628.095 663 530.392 900.884C420.399 1168.67 36.7103 1135.07 7.93426 1181.5" stroke="url(#paint36_linear_3881_586)" stroke-width="1.56873" stroke-miterlimit="10"/>
<path d="M2035.93 -561.711C2035.93 -561.711 1252.8 -348.04 831.778 -128.437C694.414 -56.7906 606.111 25.9025 574.471 108.913C474.609 370.871 591.271 625.189 483.444 861.519C363.839 1123.66 -43.6238 1077.27 -70.4809 1120.59" stroke="url(#paint37_linear_3881_586)" stroke-width="1.56873" stroke-miterlimit="10"/>
<path d="M1999.94 -589.691C1999.94 -589.691 1220.6 -379.365 799.302 -161.683C661.845 -90.6608 572.339 -9.10495 540.199 72.4423C436.932 334.452 554.558 587.524 436.5 822.152C307.373 1078.78 -123.96 1019.46 -148.891 1059.69" stroke="url(#paint38_linear_3881_586)" stroke-width="1.56873" stroke-miterlimit="10"/>
<path d="M1963.94 -617.672C1963.94 -617.672 1188.39 -410.702 766.807 -194.928C629.269 -124.531 538.533 -44.1334 505.908 35.9607C399.17 297.995 517.921 549.996 389.535 782.763C250.939 1034.06 -204.31 961.628 -227.328 998.771" stroke="url(#paint39_linear_3881_586)" stroke-width="1.56873" stroke-miterlimit="10"/>
<path d="M1927.95 -645.65C1927.95 -645.65 1156.19 -442.032 734.328 -228.173C596.698 -158.399 504.732 -79.16 471.634 -0.508533C361.371 261.508 481.379 512.636 342.59 743.399C194.571 989.511 -284.641 903.824 -305.74 937.869" stroke="url(#paint40_linear_3881_586)" stroke-width="1.56873" stroke-miterlimit="10"/>
<path d="M1891.95 -673.633C1891.95 -673.633 1123.97 -473.364 701.847 -261.421C564.124 -192.272 470.92 -114.208 437.363 -36.9886C323.512 224.964 444.893 475.425 295.641 704.018C138.223 945.118 -364.982 845.998 -384.162 876.946" stroke="url(#paint41_linear_3881_586)" stroke-width="1.56873" stroke-miterlimit="10"/>
<path d="M1855.96 -701.613C1855.96 -701.613 1091.78 -504.696 669.369 -294.661C531.566 -226.137 437.096 -149.257 403.083 -73.4582C285.584 188.395 380.883 421.251 248.694 664.646C110.661 918.798 -445.314 788.186 -462.575 816.037" stroke="url(#paint42_linear_3881_586)" stroke-width="1.56873" stroke-miterlimit="10"/>
<path d="M1819.97 -729.596C1819.97 -729.596 1059.58 -536.023 636.893 -327.909C498.996 -260.009 403.267 -184.321 368.816 -109.938C247.6 151.763 347.788 384.973 201.756 625.271C50.62 873.954 -525.638 730.371 -540.986 755.131" stroke="url(#paint43_linear_3881_586)" stroke-width="1.56873" stroke-miterlimit="10"/>
<path d="M1783.97 -757.572C1783.97 -757.572 1027.36 -567.356 604.405 -361.145C466.421 -293.876 369.413 -219.382 334.527 -146.404C209.536 115.092 314.709 349.217 154.788 585.905C-9.42619 828.943 -605.998 672.56 -619.42 694.228" stroke="url(#paint44_linear_3881_586)" stroke-width="1.56873" stroke-miterlimit="10"/>
<path d="M1747.98 -785.553C1747.98 -785.553 995.163 -598.688 571.926 -394.392C433.849 -327.746 335.565 -254.478 300.258 -182.882C171.425 78.3687 299.207 328.189 107.853 546.524C-87.3216 769.223 -686.319 614.74 -697.822 633.311" stroke="url(#paint45_linear_3881_586)" stroke-width="1.56873" stroke-miterlimit="10"/>
<path d="M1711.99 -813.539C1711.99 -813.539 962.954 -630.024 539.444 -427.649C401.282 -361.622 301.702 -289.584 265.981 -219.364C133.241 41.5699 262.763 291.729 60.9039 507.147C-143.827 725.615 -766.653 556.923 -776.244 572.39" stroke="url(#paint46_linear_3881_586)" stroke-width="1.56873" stroke-miterlimit="10"/>
<path d="M1675.99 -841.521C1675.99 -841.521 930.754 -661.358 506.96 -460.891C368.71 -395.494 267.833 -324.698 231.695 -255.836C94.979 4.7291 226.279 255.409 13.9395 467.775C-200.408 682.151 -847.003 499.111 -854.68 511.488" stroke="url(#paint47_linear_3881_586)" stroke-width="1.56873" stroke-miterlimit="10"/>
<path d="M1640 -869.5C1640 -869.5 898.537 -692.686 474.478 -494.136C336.135 -429.363 233.952 -359.825 197.423 -292.312C56.6647 -32.1873 189.758 219.207 -32.9992 428.396C-257.046 638.803 -927.334 441.287 -933.085 450.572" stroke="url(#paint48_linear_3881_586)" stroke-width="1.56873" stroke-miterlimit="10"/>
<path d="M1604 -897.479C1604 -897.479 866.335 -724.016 441.998 -527.38C303.569 -463.226 200.071 -394.964 163.147 -328.781C18.2835 -69.1559 153.178 183.101 -79.9534 389.026C-313.788 595.581 -1007.67 383.478 -1011.51 389.666" stroke="url(#paint49_linear_3881_586)" stroke-width="1.56873" stroke-miterlimit="10"/>
<path d="M1568.01 -925.467C1568.01 -925.467 834.132 -755.361 409.517 -560.627C271.001 -497.104 166.194 -430.126 128.87 -365.265C-20.1714 -106.216 116.535 147.076 -126.902 349.647C-370.612 552.436 -1088.01 325.658 -1089.92 328.749" stroke="url(#paint50_linear_3881_586)" stroke-width="1.56873" stroke-miterlimit="10"/>
<path d="M1532.01 -953.445C1532.01 -953.445 247.88 -660.136 94.5944 -401.734C-58.6908 -143.332 79.8244 111.142 -173.844 310.275C-427.512 509.409 -1168.34 267.842 -1168.34 267.842" stroke="url(#paint51_linear_3881_586)" stroke-width="1.56873" stroke-miterlimit="10"/>
</g>
<defs>
<linearGradient id="paint0_linear_3881_586" x1="3611.76" y1="658.146" x2="2020.99" y2="2761.77" gradientUnits="userSpaceOnUse">
<stop stop-color="#0E1017"/>
<stop offset="0.5" stop-color="#56566B"/>
<stop offset="1" stop-color="#0E1017"/>
</linearGradient>
<linearGradient id="paint1_linear_3881_586" x1="3553.93" y1="613.657" x2="1963.57" y2="2716.75" gradientUnits="userSpaceOnUse">
<stop stop-color="#0E1017"/>
<stop offset="0.5" stop-color="#56566B"/>
<stop offset="1" stop-color="#0E1017"/>
</linearGradient>
<linearGradient id="paint2_linear_3881_586" x1="3496.1" y1="569.162" x2="1906.15" y2="2671.71" gradientUnits="userSpaceOnUse">
<stop stop-color="#0E1017"/>
<stop offset="0.5" stop-color="#56566B"/>
<stop offset="1" stop-color="#0E1017"/>
</linearGradient>
<linearGradient id="paint3_linear_3881_586" x1="3438.25" y1="524.658" x2="1848.7" y2="2626.67" gradientUnits="userSpaceOnUse">
<stop stop-color="#0E1017"/>
<stop offset="0.5" stop-color="#56566B"/>
<stop offset="1" stop-color="#0E1017"/>
</linearGradient>
<linearGradient id="paint4_linear_3881_586" x1="3380.4" y1="480.14" x2="1791.26" y2="2581.61" gradientUnits="userSpaceOnUse">
<stop stop-color="#0E1017"/>
<stop offset="0.5" stop-color="#56566B"/>
<stop offset="1" stop-color="#0E1017"/>
</linearGradient>
<linearGradient id="paint5_linear_3881_586" x1="3322.54" y1="435.629" x2="1733.81" y2="2536.56" gradientUnits="userSpaceOnUse">
<stop stop-color="#0E1017"/>
<stop offset="0.5" stop-color="#56566B"/>
<stop offset="1" stop-color="#0E1017"/>
</linearGradient>
<linearGradient id="paint6_linear_3881_586" x1="3264.67" y1="391.106" x2="1676.35" y2="2491.5" gradientUnits="userSpaceOnUse">
<stop stop-color="#0E1017"/>
<stop offset="0.5" stop-color="#56566B"/>
<stop offset="1" stop-color="#0E1017"/>
</linearGradient>
<linearGradient id="paint7_linear_3881_586" x1="3206.79" y1="346.576" x2="1618.88" y2="2446.42" gradientUnits="userSpaceOnUse">
<stop stop-color="#0E1017"/>
<stop offset="0.5" stop-color="#56566B"/>
<stop offset="1" stop-color="#0E1017"/>
</linearGradient>
<linearGradient id="paint8_linear_3881_586" x1="3148.9" y1="302.032" x2="1561.4" y2="2401.34" gradientUnits="userSpaceOnUse">
<stop stop-color="#0E1017"/>
<stop offset="0.5" stop-color="#56566B"/>
<stop offset="1" stop-color="#0E1017"/>
</linearGradient>
<linearGradient id="paint9_linear_3881_586" x1="3090.99" y1="257.482" x2="1503.9" y2="2356.25" gradientUnits="userSpaceOnUse">
<stop stop-color="#0E1017"/>
<stop offset="0.5" stop-color="#56566B"/>
<stop offset="1" stop-color="#0E1017"/>
</linearGradient>
<linearGradient id="paint10_linear_3881_586" x1="3033.09" y1="212.93" x2="1446.4" y2="2311.16" gradientUnits="userSpaceOnUse">
<stop stop-color="#0E1017"/>
<stop offset="0.5" stop-color="#56566B"/>
<stop offset="1" stop-color="#0E1017"/>
</linearGradient>
<linearGradient id="paint11_linear_3881_586" x1="2975.16" y1="168.363" x2="1388.88" y2="2266.05" gradientUnits="userSpaceOnUse">
<stop stop-color="#0E1017"/>
<stop offset="0.5" stop-color="#56566B"/>
<stop offset="1" stop-color="#0E1017"/>
</linearGradient>
<linearGradient id="paint12_linear_3881_586" x1="2917.22" y1="123.785" x2="1331.35" y2="2220.94" gradientUnits="userSpaceOnUse">
<stop stop-color="#0E1017"/>
<stop offset="0.5" stop-color="#56566B"/>
<stop offset="1" stop-color="#0E1017"/>
</linearGradient>
<linearGradient id="paint13_linear_3881_586" x1="2859.27" y1="79.1977" x2="1273.81" y2="2175.81" gradientUnits="userSpaceOnUse">
<stop stop-color="#0E1017"/>
<stop offset="0.5" stop-color="#56566B"/>
<stop offset="1" stop-color="#0E1017"/>
</linearGradient>
<linearGradient id="paint14_linear_3881_586" x1="2801.3" y1="34.6045" x2="1216.25" y2="2130.67" gradientUnits="userSpaceOnUse">
<stop stop-color="#0E1017"/>
<stop offset="0.5" stop-color="#56566B"/>
<stop offset="1" stop-color="#0E1017"/>
</linearGradient>
<linearGradient id="paint15_linear_3881_586" x1="2743.33" y1="-9.99844" x2="1158.67" y2="2085.54" gradientUnits="userSpaceOnUse">
<stop stop-color="#0E1017"/>
<stop offset="0.5" stop-color="#56566B"/>
<stop offset="1" stop-color="#0E1017"/>
</linearGradient>
<linearGradient id="paint16_linear_3881_586" x1="2685.34" y1="-54.6172" x2="1101.11" y2="2040.37" gradientUnits="userSpaceOnUse">
<stop stop-color="#0E1017"/>
<stop offset="0.5" stop-color="#56566B"/>
<stop offset="1" stop-color="#0E1017"/>
</linearGradient>
<linearGradient id="paint17_linear_3881_586" x1="2627.34" y1="-99.242" x2="1043.51" y2="1995.21" gradientUnits="userSpaceOnUse">
<stop stop-color="#0E1017"/>
<stop offset="0.5" stop-color="#56566B"/>
<stop offset="1" stop-color="#0E1017"/>
</linearGradient>
<linearGradient id="paint18_linear_3881_586" x1="2569.31" y1="-143.881" x2="985.888" y2="1950.03" gradientUnits="userSpaceOnUse">
<stop stop-color="#0E1017"/>
<stop offset="0.5" stop-color="#56566B"/>
<stop offset="1" stop-color="#0E1017"/>
</linearGradient>
<linearGradient id="paint19_linear_3881_586" x1="2511.27" y1="-188.53" x2="928.258" y2="1904.84" gradientUnits="userSpaceOnUse">
<stop stop-color="#0E1017"/>
<stop offset="0.5" stop-color="#56566B"/>
<stop offset="1" stop-color="#0E1017"/>
</linearGradient>
<linearGradient id="paint20_linear_3881_586" x1="2453.21" y1="-233.195" x2="870.605" y2="1859.64" gradientUnits="userSpaceOnUse">
<stop stop-color="#0E1017"/>
<stop offset="0.5" stop-color="#56566B"/>
<stop offset="1" stop-color="#0E1017"/>
</linearGradient>
<linearGradient id="paint21_linear_3881_586" x1="2395.14" y1="-277.874" x2="812.941" y2="1814.42" gradientUnits="userSpaceOnUse">
<stop stop-color="#0E1017"/>
<stop offset="0.5" stop-color="#56566B"/>
<stop offset="1" stop-color="#0E1017"/>
</linearGradient>
<linearGradient id="paint22_linear_3881_586" x1="2337.04" y1="-322.568" x2="755.256" y2="1769.18" gradientUnits="userSpaceOnUse">
<stop stop-color="#0E1017"/>
<stop offset="0.5" stop-color="#56566B"/>
<stop offset="1" stop-color="#0E1017"/>
</linearGradient>
<linearGradient id="paint23_linear_3881_586" x1="2278.93" y1="-367.272" x2="697.545" y2="1723.95" gradientUnits="userSpaceOnUse">
<stop stop-color="#0E1017"/>
<stop offset="0.5" stop-color="#56566B"/>
<stop offset="1" stop-color="#0E1017"/>
</linearGradient>
<linearGradient id="paint24_linear_3881_586" x1="2220.8" y1="-411.991" x2="639.825" y2="1678.69" gradientUnits="userSpaceOnUse">
<stop stop-color="#0E1017"/>
<stop offset="0.5" stop-color="#56566B"/>
<stop offset="1" stop-color="#0E1017"/>
</linearGradient>
<linearGradient id="paint25_linear_3881_586" x1="2171.02" y1="-450.409" x2="590.461" y2="1639.72" gradientUnits="userSpaceOnUse">
<stop stop-color="#0E1017"/>
<stop offset="0.5" stop-color="#56566B"/>
<stop offset="1" stop-color="#0E1017"/>
</linearGradient>
<linearGradient id="paint26_linear_3881_586" x1="2134.26" y1="-478.967" x2="554.105" y2="1610.63" gradientUnits="userSpaceOnUse">
<stop stop-color="#0E1017"/>
<stop offset="0.5" stop-color="#56566B"/>
<stop offset="1" stop-color="#0E1017"/>
</linearGradient>
<linearGradient id="paint27_linear_3881_586" x1="2097.48" y1="-507.543" x2="517.726" y2="1581.51" gradientUnits="userSpaceOnUse">
<stop stop-color="#0E1017"/>
<stop offset="0.5" stop-color="#56566B"/>
<stop offset="1" stop-color="#0E1017"/>
</linearGradient>
<linearGradient id="paint28_linear_3881_586" x1="2060.67" y1="-536.132" x2="481.333" y2="1552.38" gradientUnits="userSpaceOnUse">
<stop stop-color="#0E1017"/>
<stop offset="0.5" stop-color="#56566B"/>
<stop offset="1" stop-color="#0E1017"/>
</linearGradient>
<linearGradient id="paint29_linear_3881_586" x1="2023.85" y1="-564.747" x2="444.913" y2="1523.23" gradientUnits="userSpaceOnUse">
<stop stop-color="#0E1017"/>
<stop offset="0.5" stop-color="#56566B"/>
<stop offset="1" stop-color="#0E1017"/>
</linearGradient>
<linearGradient id="paint30_linear_3881_586" x1="1987" y1="-593.374" x2="408.483" y2="1494.05" gradientUnits="userSpaceOnUse">
<stop stop-color="#0E1017"/>
<stop offset="0.5" stop-color="#56566B"/>
<stop offset="1" stop-color="#0E1017"/>
</linearGradient>
<linearGradient id="paint31_linear_3881_586" x1="1950.12" y1="-622.022" x2="372.001" y2="1464.88" gradientUnits="userSpaceOnUse">
<stop stop-color="#0E1017"/>
<stop offset="0.5" stop-color="#56566B"/>
<stop offset="1" stop-color="#0E1017"/>
</linearGradient>
<linearGradient id="paint32_linear_3881_586" x1="1913.21" y1="-650.693" x2="335.506" y2="1435.66" gradientUnits="userSpaceOnUse">
<stop stop-color="#0E1017"/>
<stop offset="0.5" stop-color="#56566B"/>
<stop offset="1" stop-color="#0E1017"/>
</linearGradient>
<linearGradient id="paint33_linear_3881_586" x1="1876.29" y1="-679.389" x2="298.99" y2="1406.42" gradientUnits="userSpaceOnUse">
<stop stop-color="#0E1017"/>
<stop offset="0.5" stop-color="#56566B"/>
<stop offset="1" stop-color="#0E1017"/>
</linearGradient>
<linearGradient id="paint34_linear_3881_586" x1="1839.33" y1="-708.097" x2="262.442" y2="1377.18" gradientUnits="userSpaceOnUse">
<stop stop-color="#0E1017"/>
<stop offset="0.5" stop-color="#56566B"/>
<stop offset="1" stop-color="#0E1017"/>
</linearGradient>
<linearGradient id="paint35_linear_3881_586" x1="1802.35" y1="-736.823" x2="225.86" y2="1347.92" gradientUnits="userSpaceOnUse">
<stop stop-color="#0E1017"/>
<stop offset="0.5" stop-color="#56566B"/>
<stop offset="1" stop-color="#0E1017"/>
</linearGradient>
<linearGradient id="paint36_linear_3881_586" x1="1765.33" y1="-765.568" x2="189.267" y2="1318.62" gradientUnits="userSpaceOnUse">
<stop stop-color="#0E1017"/>
<stop offset="0.5" stop-color="#56566B"/>
<stop offset="1" stop-color="#0E1017"/>
</linearGradient>
<linearGradient id="paint37_linear_3881_586" x1="1728.3" y1="-794.343" x2="152.634" y2="1289.31" gradientUnits="userSpaceOnUse">
<stop stop-color="#0E1017"/>
<stop offset="0.5" stop-color="#56566B"/>
<stop offset="1" stop-color="#0E1017"/>
</linearGradient>
<linearGradient id="paint38_linear_3881_586" x1="1691.24" y1="-823.132" x2="115.98" y2="1259.99" gradientUnits="userSpaceOnUse">
<stop stop-color="#0E1017"/>
<stop offset="0.5" stop-color="#56566B"/>
<stop offset="1" stop-color="#0E1017"/>
</linearGradient>
<linearGradient id="paint39_linear_3881_586" x1="1654.14" y1="-851.946" x2="79.2874" y2="1230.63" gradientUnits="userSpaceOnUse">
<stop stop-color="#0E1017"/>
<stop offset="0.5" stop-color="#56566B"/>
<stop offset="1" stop-color="#0E1017"/>
</linearGradient>
<linearGradient id="paint40_linear_3881_586" x1="1598.32" y1="-894.918" x2="23.8725" y2="1187.12" gradientUnits="userSpaceOnUse">
<stop stop-color="#0E1017"/>
<stop offset="0.5" stop-color="#56566B"/>
<stop offset="1" stop-color="#0E1017"/>
</linearGradient>
<linearGradient id="paint41_linear_3881_586" x1="1540.9" y1="-939.097" x2="-33.1284" y2="1142.4" gradientUnits="userSpaceOnUse">
<stop stop-color="#0E1017"/>
<stop offset="0.5" stop-color="#56566B"/>
<stop offset="1" stop-color="#0E1017"/>
</linearGradient>
<linearGradient id="paint42_linear_3881_586" x1="1483.5" y1="-983.27" x2="-90.1236" y2="1097.69" gradientUnits="userSpaceOnUse">
<stop stop-color="#0E1017"/>
<stop offset="0.5" stop-color="#56566B"/>
<stop offset="1" stop-color="#0E1017"/>
</linearGradient>
<linearGradient id="paint43_linear_3881_586" x1="1426.1" y1="-1027.44" x2="-147.12" y2="1052.97" gradientUnits="userSpaceOnUse">
<stop stop-color="#0E1017"/>
<stop offset="0.5" stop-color="#56566B"/>
<stop offset="1" stop-color="#0E1017"/>
</linearGradient>
<linearGradient id="paint44_linear_3881_586" x1="1368.68" y1="-1071.62" x2="-204.134" y2="1008.27" gradientUnits="userSpaceOnUse">
<stop stop-color="#0E1017"/>
<stop offset="0.5" stop-color="#56566B"/>
<stop offset="1" stop-color="#0E1017"/>
</linearGradient>
<linearGradient id="paint45_linear_3881_586" x1="1311.27" y1="-1115.79" x2="-261.122" y2="963.544" gradientUnits="userSpaceOnUse">
<stop stop-color="#0E1017"/>
<stop offset="0.5" stop-color="#56566B"/>
<stop offset="1" stop-color="#0E1017"/>
</linearGradient>
<linearGradient id="paint46_linear_3881_586" x1="1253.87" y1="-1159.97" x2="-318.124" y2="918.822" gradientUnits="userSpaceOnUse">
<stop stop-color="#0E1017"/>
<stop offset="0.5" stop-color="#56566B"/>
<stop offset="1" stop-color="#0E1017"/>
</linearGradient>
<linearGradient id="paint47_linear_3881_586" x1="1196.45" y1="-1204.15" x2="-375.14" y2="874.117" gradientUnits="userSpaceOnUse">
<stop stop-color="#0E1017"/>
<stop offset="0.5" stop-color="#56566B"/>
<stop offset="1" stop-color="#0E1017"/>
</linearGradient>
<linearGradient id="paint48_linear_3881_586" x1="1139.04" y1="-1248.32" x2="-432.133" y2="829.394" gradientUnits="userSpaceOnUse">
<stop stop-color="#0E1017"/>
<stop offset="0.5" stop-color="#56566B"/>
<stop offset="1" stop-color="#0E1017"/>
</linearGradient>
<linearGradient id="paint49_linear_3881_586" x1="1081.63" y1="-1292.5" x2="-489.137" y2="784.682" gradientUnits="userSpaceOnUse">
<stop stop-color="#0E1017"/>
<stop offset="0.5" stop-color="#56566B"/>
<stop offset="1" stop-color="#0E1017"/>
</linearGradient>
<linearGradient id="paint50_linear_3881_586" x1="1024.22" y1="-1336.68" x2="-546.136" y2="739.961" gradientUnits="userSpaceOnUse">
<stop stop-color="#0E1017"/>
<stop offset="0.5" stop-color="#56566B"/>
<stop offset="1" stop-color="#0E1017"/>
</linearGradient>
<linearGradient id="paint51_linear_3881_586" x1="966.812" y1="-1380.85" x2="-603.14" y2="695.248" gradientUnits="userSpaceOnUse">
<stop stop-color="#0E1017"/>
<stop offset="0.5" stop-color="#56566B"/>
<stop offset="1" stop-color="#0E1017"/>
</linearGradient>
<clipPath id="clip0_3881_586">
<rect width="2668.73" height="5064.31" fill="white" transform="translate(4441.05 1246.03) rotate(127.097)"/>
</clipPath>
</defs>
</svg>
