<svg preserveAspectRatio="xMidYMid meet" width="1701" height="3229" viewBox="0 0 1701.35 3228.52" fill="none" xmlns="http://www.w3.org/2000/svg">
<g id="Group">
<path id="Vector" d="M20.084 842.912C20.084 842.912 546.765 1182.53 852.37 1279.76C1415.11 1458.81 1465.91 22.3769 1701.31 0.497854" stroke="url(#paint0_linear_3840_610)" stroke-miterlimit="10"/>
<path id="Vector_2" d="M19.6994 871.971C19.6994 871.971 543.223 1210.95 847.956 1309.06C947.4 1341.08 1030.7 1322.78 1101.83 1271.06C1232.57 1176 1322.84 969.444 1397.17 755.886C1512.64 424.085 1584.94 74.5344 1700.49 63.7936" stroke="url(#paint1_linear_3840_610)" stroke-miterlimit="10"/>
<path id="Vector_3" d="M19.3131 901.032C19.3131 901.032 539.674 1239.37 843.546 1338.36C942.708 1370.66 1025.67 1353.08 1096.47 1302.52C1228.11 1208.5 1319.07 1003.4 1395.2 794.893C1513.4 471.173 1586.43 137.606 1699.67 127.081" stroke="url(#paint2_linear_3840_610)" stroke-miterlimit="10"/>
<path id="Vector_4" d="M18.9269 930.092C18.9269 930.092 536.131 1267.79 839.131 1367.66C938.011 1400.24 1020.64 1383.39 1091.1 1333.97C1223.65 1241.01 1315.28 1037.37 1393.23 833.905C1514.14 518.298 1587.93 200.683 1698.86 190.378" stroke="url(#paint3_linear_3840_610)" stroke-miterlimit="10"/>
<path id="Vector_5" d="M18.5344 959.147C18.5344 959.147 532.576 1296.21 834.709 1396.95C933.303 1429.83 1015.61 1413.7 1085.73 1365.42C1219.21 1273.52 1311.48 1071.37 1391.26 872.917C1514.86 565.451 1589.42 263.765 1698.04 253.67" stroke="url(#paint4_linear_3840_610)" stroke-miterlimit="10"/>
<path id="Vector_6" d="M18.1485 988.205C18.1485 988.205 529.027 1324.63 830.3 1426.25C928.612 1459.41 1010.61 1444.02 1080.37 1396.87C1214.78 1306.02 1307.66 1105.4 1389.29 911.921C1515.56 612.624 1590.91 326.834 1697.21 316.954" stroke="url(#paint5_linear_3840_610)" stroke-miterlimit="10"/>
<path id="Vector_7" d="M17.7615 1017.27C17.7615 1017.27 525.483 1353.06 825.883 1455.55C923.914 1488.99 1005.61 1474.35 1075 1428.33C1210.37 1338.54 1303.84 1139.46 1387.33 950.934C1516.24 659.834 1592.41 389.911 1696.4 380.247" stroke="url(#paint6_linear_3840_610)" stroke-miterlimit="10"/>
<path id="Vector_8" d="M17.3749 1046.32C17.3749 1046.32 521.934 1381.48 821.468 1484.84C919.211 1518.57 1000.61 1504.69 1069.63 1459.77C1205.97 1371.05 1299.99 1173.53 1385.35 989.944C1516.88 707.073 1593.89 452.991 1695.57 443.537" stroke="url(#paint7_linear_3840_610)" stroke-miterlimit="10"/>
<path id="Vector_9" d="M16.984 1075.38C16.984 1075.38 518.386 1409.9 817.053 1514.14C914.515 1548.16 995.634 1535.03 1064.27 1491.22C1201.59 1403.58 1296.12 1207.63 1383.39 1028.95C1517.5 754.341 1595.39 516.061 1694.76 506.827" stroke="url(#paint8_linear_3840_610)" stroke-miterlimit="10"/>
<path id="Vector_10" d="M16.5978 1104.44C16.5978 1104.44 514.837 1438.32 812.638 1543.44C909.818 1577.74 990.661 1565.39 1058.9 1522.68C1197.22 1436.11 1292.23 1241.76 1381.41 1067.97C1518.08 801.642 1596.88 579.143 1693.94 570.124" stroke="url(#paint9_linear_3840_610)" stroke-miterlimit="10"/>
<path id="Vector_11" d="M16.2103 1133.5C16.2103 1133.5 511.287 1466.74 808.227 1572.73C905.12 1607.32 985.698 1595.75 1053.54 1554.13C1192.86 1468.65 1288.32 1275.92 1379.45 1106.97C1518.62 848.966 1598.37 642.213 1693.12 633.41" stroke="url(#paint10_linear_3840_610)" stroke-miterlimit="10"/>
<path id="Vector_12" d="M15.8233 1162.56C15.8233 1162.56 507.743 1495.17 803.81 1602.04C900.422 1636.91 980.747 1626.12 1048.17 1585.58C1188.52 1501.2 1284.37 1310.11 1377.48 1145.98C1519.11 896.324 1599.86 705.296 1692.3 696.703" stroke="url(#paint11_linear_3840_610)" stroke-miterlimit="10"/>
<path id="Vector_13" d="M15.4344 1191.62C15.4344 1191.62 504.191 1523.59 799.392 1631.34C895.723 1666.49 975.793 1656.5 1042.8 1617.04C1184.19 1533.76 1280.39 1344.32 1375.51 1185C1519.56 943.713 1601.35 768.378 1691.48 759.999" stroke="url(#paint12_linear_3840_610)" stroke-miterlimit="10"/>
<path id="Vector_14" d="M15.0446 1220.68C15.0446 1220.68 500.644 1552.01 794.979 1660.63C891.023 1696.07 970.861 1686.89 1037.44 1648.49C1179.88 1566.32 1276.39 1378.56 1373.54 1224.01C1519.95 991.121 1602.84 831.449 1690.66 823.291" stroke="url(#paint13_linear_3840_610)" stroke-miterlimit="10"/>
<path id="Vector_15" d="M14.6592 1249.74C14.6592 1249.74 497.096 1580.44 790.564 1689.93C886.326 1725.66 965.933 1717.3 1032.07 1679.95C1175.58 1598.9 1272.34 1412.83 1371.57 1263.02C1520.27 1038.55 1604.33 894.531 1689.84 886.583" stroke="url(#paint14_linear_3840_610)" stroke-miterlimit="10"/>
<path id="Vector_16" d="M14.2726 1278.8C14.2726 1278.8 493.547 1608.85 786.154 1719.23C881.634 1755.24 961.015 1747.7 1026.71 1711.39C1171.31 1631.48 1268.26 1447.11 1369.61 1302.03C1520.53 1085.99 1605.83 957.606 1689.03 949.873" stroke="url(#paint15_linear_3840_610)" stroke-miterlimit="10"/>
<path id="Vector_17" d="M13.8808 1307.86C13.8808 1307.86 489.998 1637.27 781.733 1748.52C876.927 1784.83 956.097 1778.12 1021.33 1742.84C1167.02 1664.07 1264.11 1481.42 1367.63 1341.04C1520.71 1133.45 1607.31 1020.68 1688.2 1013.16" stroke="url(#paint16_linear_3840_610)" stroke-miterlimit="10"/>
<path id="Vector_18" d="M13.4946 1336.92C13.4946 1336.92 486.449 1665.69 777.318 1777.82C872.23 1814.4 951.191 1808.54 1015.97 1774.29C1162.77 1696.68 1259.94 1515.74 1365.67 1380.05C1520.81 1180.92 1608.81 1083.75 1687.38 1076.46" stroke="url(#paint17_linear_3840_610)" stroke-miterlimit="10"/>
<path id="Vector_19" d="M13.108 1365.98C13.108 1365.98 482.905 1694.11 772.907 1807.12C867.532 1843.99 946.3 1838.98 1010.6 1805.75C1158.53 1729.31 1255.71 1550.08 1363.7 1419.06C1520.84 1228.4 1610.3 1146.83 1686.57 1139.75" stroke="url(#paint18_linear_3840_610)" stroke-miterlimit="10"/>
<path id="Vector_20" d="M12.7206 1395.04C12.7206 1395.04 479.355 1722.54 768.491 1836.41C862.834 1873.57 941.403 1869.43 1005.24 1837.2C1154.3 1761.95 1251.42 1584.44 1361.73 1458.06C1520.77 1275.87 1611.79 1209.9 1685.75 1203.03" stroke="url(#paint19_linear_3840_610)" stroke-miterlimit="10"/>
<path id="Vector_21" d="M12.3344 1424.1C12.3344 1424.1 475.806 1750.96 764.075 1865.71C858.137 1903.15 936.519 1899.88 999.871 1868.65C1150.09 1794.6 1247.08 1618.79 1359.77 1497.08C1520.62 1323.33 1613.29 1272.99 1684.93 1266.33" stroke="url(#paint20_linear_3840_610)" stroke-miterlimit="10"/>
<path id="Vector_22" d="M11.9454 1453.16C11.9454 1453.16 472.26 1779.38 759.663 1895.01C853.438 1932.73 931.648 1930.34 994.503 1900.1C1145.88 1827.27 1242.67 1653.15 1357.8 1536.09C1520.36 1370.77 1614.78 1336.06 1684.11 1329.62" stroke="url(#paint21_linear_3840_610)" stroke-miterlimit="10"/>
<path id="Vector_23" d="M11.5592 1482.22C11.5592 1482.22 468.712 1807.8 755.247 1924.31C848.741 1962.32 926.775 1960.82 989.139 1931.56C1141.7 1859.97 1238.21 1687.51 1355.83 1575.1C1520.01 1418.19 1616.27 1399.14 1683.29 1392.91" stroke="url(#paint22_linear_3840_610)" stroke-miterlimit="10"/>
<path id="Vector_24" d="M11.1725 1511.28C11.1725 1511.28 465.168 1836.23 750.837 1953.6C844.049 1991.9 921.917 1991.31 983.773 1963.01C1137.52 1892.67 1233.68 1721.85 1353.86 1614.11C1519.56 1465.57 1617.77 1462.21 1682.48 1456.2" stroke="url(#paint23_linear_3840_610)" stroke-miterlimit="10"/>
<path id="Vector_25" d="M10.7851 1540.33C10.7851 1540.33 461.618 1864.65 746.42 1982.9C839.345 2021.48 917.054 2021.8 978.408 1994.46C1133.36 1925.4 1229.08 1756.17 1351.9 1653.11C1519 1512.9 1619.26 1525.29 1681.66 1519.49" stroke="url(#paint24_linear_3840_610)" stroke-miterlimit="10"/>
<path id="Vector_26" d="M10.392 1569.4C10.392 1569.4 458.062 1893.07 741.998 2012.2C834.642 2051.07 912.195 2052.31 973.03 2025.92C1129.2 1958.17 1224.4 1790.47 1349.91 1692.14C1518.33 1560.19 1620.74 1588.38 1680.83 1582.79" stroke="url(#paint25_linear_3840_610)" stroke-miterlimit="10"/>
<path id="Vector_27" d="M10.0054 1598.46C10.0054 1598.46 454.518 1921.49 737.588 2041.5C829.95 2080.65 907.349 2082.82 967.671 2057.37C1125.07 1990.94 1219.67 1824.71 1347.95 1731.14C1517.59 1607.41 1622.24 1651.45 1680.01 1646.08" stroke="url(#paint26_linear_3840_610)" stroke-miterlimit="10"/>
<path id="Vector_28" d="M9.62006 1627.52C9.62006 1627.52 450.97 1949.92 733.173 2070.8C825.248 2110.24 902.509 2113.35 962.301 2088.82C1120.94 2023.74 1214.87 1858.91 1345.98 1770.15C1516.76 1654.54 1623.73 1714.52 1679.2 1709.37" stroke="url(#paint27_linear_3840_610)" stroke-miterlimit="10"/>
<path id="Vector_29" d="M9.23506 1656.57C9.23506 1656.57 447.428 1978.34 728.759 2100.09C820.553 2139.82 897.67 2143.89 956.938 2120.27C1116.82 2056.57 1210.01 1893.05 1344.02 1809.17C1515.83 1701.6 1625.23 1777.6 1678.38 1772.66" stroke="url(#paint28_linear_3840_610)" stroke-miterlimit="10"/>
<path id="Vector_30" d="M8.84303 1685.63C8.84303 1685.63 443.873 2006.76 724.343 2129.39C815.855 2169.4 892.835 2174.43 951.573 2151.72C1112.72 2089.41 1205.1 1927.13 1342.05 1848.17C1514.83 1748.55 1626.72 1840.67 1677.56 1835.95" stroke="url(#paint29_linear_3840_610)" stroke-miterlimit="10"/>
<path id="Vector_31" d="M8.45568 1714.69C8.45568 1714.69 440.324 2035.17 719.927 2158.68C811.152 2198.98 888.005 2204.99 946.201 2183.17C1108.63 2122.29 1200.13 1961.11 1340.07 1887.17C1513.76 1795.4 1628.2 1903.74 1676.73 1899.23" stroke="url(#paint30_linear_3840_610)" stroke-miterlimit="10"/>
<path id="Vector_32" d="M8.06912 1743.75C8.06912 1743.75 436.78 2063.6 715.517 2187.98C806.46 2228.56 883.18 2235.55 940.842 2214.62C1104.55 2155.21 1195.13 1995.03 1338.11 1926.19C1512.64 1842.16 1629.71 1966.83 1675.93 1962.53" stroke="url(#paint31_linear_3840_610)" stroke-miterlimit="10"/>
<path id="Vector_33" d="M7.68256 1772.81C7.68256 1772.81 433.231 2092.02 711.101 2217.28C801.763 2258.15 878.356 2266.13 935.471 2246.08C1100.47 2188.15 1190.08 2028.84 1336.14 1965.2C1511.48 1888.8 1631.2 2029.9 1675.1 2025.82" stroke="url(#paint32_linear_3840_610)" stroke-miterlimit="10"/>
<path id="Vector_34" d="M7.29016 1801.87C7.29016 1801.87 429.681 2120.45 706.679 2246.58C797.054 2287.73 873.526 2296.72 930.1 2277.53C1096.4 2221.13 1185 2062.56 1334.17 2004.22C1510.29 1935.33 1632.68 2092.99 1674.27 2089.12" stroke="url(#paint33_linear_3840_610)" stroke-miterlimit="10"/>
<path id="Vector_35" d="M6.9036 1830.93C6.9036 1830.93 426.132 2148.86 702.269 2275.88C792.363 2317.32 868.713 2327.31 924.735 2308.98C1092.35 2254.14 1179.92 2096.16 1332.2 2043.22C1509.09 1981.73 1634.17 2156.06 1673.46 2152.41" stroke="url(#paint34_linear_3840_610)" stroke-miterlimit="10"/>
<path id="Vector_36" d="M6.51704 1859.99C6.51704 1859.99 422.583 2177.29 697.853 2305.17C787.665 2346.9 863.894 2357.92 919.37 2340.43C1088.3 2287.18 1174.83 2129.65 1330.24 2082.23C1507.9 2028.02 1635.67 2219.13 1672.65 2215.69" stroke="url(#paint35_linear_3840_610)" stroke-miterlimit="10"/>
<path id="Vector_37" d="M6.13205 1889.05C6.13205 1889.05 419.041 2205.71 693.439 2334.47C782.964 2376.48 859.077 2388.54 914.001 2371.89C1084.26 2320.27 1169.74 2163.03 1328.26 2121.24C1506.71 2074.21 1637.15 2282.21 1671.82 2279" stroke="url(#paint36_linear_3840_610)" stroke-miterlimit="10"/>
<path id="Vector_38" d="M5.7412 1918.11C5.7412 1918.11 415.487 2234.13 689.025 2363.77C778.268 2406.06 854.265 2419.17 908.637 2403.34C1080.23 2353.39 1164.68 2196.29 1326.3 2160.25C1505.57 2120.27 1638.65 2345.28 1671 2342.28" stroke="url(#paint37_linear_3840_610)" stroke-miterlimit="10"/>
<path id="Vector_39" d="M5.35346 1947.17C5.35346 1947.17 411.942 2262.55 684.608 2393.06C773.57 2435.65 849.451 2449.8 903.271 2434.79C1076.19 2386.55 1159.64 2229.44 1324.33 2199.25C1504.46 2166.24 1640.14 2408.36 1670.18 2405.57" stroke="url(#paint38_linear_3840_610)" stroke-miterlimit="10"/>
<path id="Vector_40" d="M4.96808 1976.23C4.96808 1976.23 408.394 2290.98 680.199 2422.37C768.874 2465.23 844.639 2480.45 897.907 2466.25C1072.18 2419.77 1154.65 2262.5 1322.36 2238.28C1503.42 2212.13 1641.63 2471.45 1669.37 2468.87" stroke="url(#paint39_linear_3840_610)" stroke-miterlimit="10"/>
<path id="Vector_41" d="M4.58153 2005.29C4.58153 2005.29 404.845 2319.4 675.783 2451.66C764.177 2494.82 839.826 2511.11 892.542 2497.7C1068.16 2453.02 1149.7 2295.44 1320.4 2277.28C1502.44 2257.92 1643.13 2534.52 1668.55 2532.15" stroke="url(#paint40_linear_3840_610)" stroke-miterlimit="10"/>
<path id="Vector_42" d="M4.19341 2034.35C4.19341 2034.35 401.3 2347.82 671.366 2480.96C759.478 2524.4 835.006 2541.78 887.17 2529.15C1064.13 2486.32 1144.81 2328.3 1318.42 2316.3C1501.54 2303.63 1644.62 2597.6 1667.73 2595.45" stroke="url(#paint41_linear_3840_610)" stroke-miterlimit="10"/>
<path id="Vector_43" d="M3.8045 2063.4C3.8045 2063.4 397.748 2376.24 666.953 2510.26C754.778 2553.98 830.19 2572.45 881.808 2560.6C1060.12 2519.66 1141.88 2381.68 1316.46 2355.3C1498.75 2327.77 1646.11 2660.67 1666.91 2658.74" stroke="url(#paint42_linear_3840_610)" stroke-miterlimit="10"/>
<path id="Vector_44" d="M3.41521 2092.46C3.41521 2092.46 394.202 2404.66 662.535 2539.55C750.078 2583.56 825.369 2603.13 876.435 2592.05C1056.1 2553.06 1136.16 2412.45 1314.48 2394.31C1499.04 2375.54 1647.6 2723.74 1666.09 2722.03" stroke="url(#paint43_linear_3840_610)" stroke-miterlimit="10"/>
<path id="Vector_45" d="M3.03139 2121.52C3.03139 2121.52 390.655 2433.08 658.127 2568.85C745.384 2613.14 820.558 2633.83 871.078 2623.5C1052.09 2586.51 1130.7 2443.02 1312.53 2433.33C1499.24 2423.37 1649.1 2786.83 1665.28 2785.32" stroke="url(#paint44_linear_3840_610)" stroke-miterlimit="10"/>
<path id="Vector_46" d="M2.64483 2150.58C2.64483 2150.58 387.106 2461.5 653.711 2598.15C740.687 2642.73 815.729 2664.53 865.707 2654.95C1048.07 2620.01 1125.96 2458.99 1310.55 2472.33C1498.82 2485.94 1650.59 2849.9 1664.45 2848.61" stroke="url(#paint45_linear_3840_610)" stroke-miterlimit="10"/>
<path id="Vector_47" d="M2.2528 2179.64C2.2528 2179.64 383.557 2489.93 649.29 2627.45C735.984 2672.31 810.899 2695.24 860.337 2686.41C1044.05 2653.57 1121.44 2491.53 1308.58 2511.34C1498.38 2531.44 1652.08 2912.97 1663.63 2911.9" stroke="url(#paint46_linear_3840_610)" stroke-miterlimit="10"/>
<path id="Vector_48" d="M1.86469 2208.7C1.86469 2208.7 380.006 2518.35 644.878 2656.75C731.285 2701.9 806.068 2725.97 854.975 2717.86C1040.03 2687.19 1117 2524.05 1306.62 2550.36C1498.03 2576.92 1653.58 2976.06 1662.82 2975.2" stroke="url(#paint47_linear_3840_610)" stroke-miterlimit="10"/>
<path id="Vector_49" d="M1.47931 2237.76C1.47931 2237.76 376.464 2546.77 640.464 2686.05C726.589 2731.48 801.234 2756.7 849.606 2749.31C1035.99 2720.87 1112.63 2556.54 1304.64 2589.37C1497.77 2622.38 1655.06 3039.13 1661.99 3038.49" stroke="url(#paint48_linear_3840_610)" stroke-miterlimit="10"/>
<path id="Vector_50" d="M1.09431 2266.82C1.09431 2266.82 372.916 2575.19 636.05 2715.34C721.893 2761.06 796.395 2787.44 844.243 2780.76C1031.95 2754.6 1108.34 2589.02 1302.68 2628.38C1497.61 2667.85 1656.56 3102.21 1661.18 3101.78" stroke="url(#paint49_linear_3840_610)" stroke-miterlimit="10"/>
<path id="Vector_51" d="M0.701902 2295.88C0.701902 2295.88 369.361 2603.62 631.634 2744.64C717.19 2790.64 791.542 2818.18 838.872 2812.22C1027.89 2788.4 1104.11 2621.5 1300.71 2667.39C1497.52 2713.33 1658.05 3165.29 1660.36 3165.07" stroke="url(#paint50_linear_3840_610)" stroke-miterlimit="10"/>
<path id="Vector_52" d="M0.315345 2324.94C0.315345 2324.94 643.186 2865.08 833.507 2843.67C1023.83 2822.25 1099.96 2653.98 1298.74 2706.4C1497.52 2758.81 1659.54 3228.36 1659.54 3228.36" stroke="url(#paint51_linear_3840_610)" stroke-miterlimit="10"/>
</g>
<defs>
<linearGradient id="paint0_linear_3840_610" x1="20.084" y1="647.853" x2="1701.31" y2="647.853" gradientUnits="userSpaceOnUse">
<stop stop-color="#0E1017"/>
<stop offset="0.5" stop-color="#56566B"/>
<stop offset="1" stop-color="#0E1017"/>
</linearGradient>
<linearGradient id="paint1_linear_3840_610" x1="19.6994" y1="694.364" x2="1700.49" y2="694.364" gradientUnits="userSpaceOnUse">
<stop stop-color="#0E1017"/>
<stop offset="0.5" stop-color="#56566B"/>
<stop offset="1" stop-color="#0E1017"/>
</linearGradient>
<linearGradient id="paint2_linear_3840_610" x1="19.3131" y1="740.878" x2="1699.67" y2="740.878" gradientUnits="userSpaceOnUse">
<stop stop-color="#0E1017"/>
<stop offset="0.5" stop-color="#56566B"/>
<stop offset="1" stop-color="#0E1017"/>
</linearGradient>
<linearGradient id="paint3_linear_3840_610" x1="18.9269" y1="787.402" x2="1698.86" y2="787.402" gradientUnits="userSpaceOnUse">
<stop stop-color="#0E1017"/>
<stop offset="0.5" stop-color="#56566B"/>
<stop offset="1" stop-color="#0E1017"/>
</linearGradient>
<linearGradient id="paint4_linear_3840_610" x1="18.5344" y1="833.931" x2="1698.04" y2="833.931" gradientUnits="userSpaceOnUse">
<stop stop-color="#0E1017"/>
<stop offset="0.5" stop-color="#56566B"/>
<stop offset="1" stop-color="#0E1017"/>
</linearGradient>
<linearGradient id="paint5_linear_3840_610" x1="18.1485" y1="880.464" x2="1697.21" y2="880.464" gradientUnits="userSpaceOnUse">
<stop stop-color="#0E1017"/>
<stop offset="0.5" stop-color="#56566B"/>
<stop offset="1" stop-color="#0E1017"/>
</linearGradient>
<linearGradient id="paint6_linear_3840_610" x1="17.7615" y1="927.008" x2="1696.4" y2="927.008" gradientUnits="userSpaceOnUse">
<stop stop-color="#0E1017"/>
<stop offset="0.5" stop-color="#56566B"/>
<stop offset="1" stop-color="#0E1017"/>
</linearGradient>
<linearGradient id="paint7_linear_3840_610" x1="17.3749" y1="973.558" x2="1695.57" y2="973.558" gradientUnits="userSpaceOnUse">
<stop stop-color="#0E1017"/>
<stop offset="0.5" stop-color="#56566B"/>
<stop offset="1" stop-color="#0E1017"/>
</linearGradient>
<linearGradient id="paint8_linear_3840_610" x1="16.984" y1="1020.12" x2="1694.76" y2="1020.12" gradientUnits="userSpaceOnUse">
<stop stop-color="#0E1017"/>
<stop offset="0.5" stop-color="#56566B"/>
<stop offset="1" stop-color="#0E1017"/>
</linearGradient>
<linearGradient id="paint9_linear_3840_610" x1="16.5978" y1="1066.69" x2="1693.94" y2="1066.69" gradientUnits="userSpaceOnUse">
<stop stop-color="#0E1017"/>
<stop offset="0.5" stop-color="#56566B"/>
<stop offset="1" stop-color="#0E1017"/>
</linearGradient>
<linearGradient id="paint10_linear_3840_610" x1="16.2103" y1="1113.26" x2="1693.12" y2="1113.26" gradientUnits="userSpaceOnUse">
<stop stop-color="#0E1017"/>
<stop offset="0.5" stop-color="#56566B"/>
<stop offset="1" stop-color="#0E1017"/>
</linearGradient>
<linearGradient id="paint11_linear_3840_610" x1="15.8233" y1="1159.85" x2="1692.3" y2="1159.85" gradientUnits="userSpaceOnUse">
<stop stop-color="#0E1017"/>
<stop offset="0.5" stop-color="#56566B"/>
<stop offset="1" stop-color="#0E1017"/>
</linearGradient>
<linearGradient id="paint12_linear_3840_610" x1="15.4344" y1="1206.45" x2="1691.48" y2="1206.45" gradientUnits="userSpaceOnUse">
<stop stop-color="#0E1017"/>
<stop offset="0.5" stop-color="#56566B"/>
<stop offset="1" stop-color="#0E1017"/>
</linearGradient>
<linearGradient id="paint13_linear_3840_610" x1="15.0446" y1="1253.06" x2="1690.66" y2="1253.06" gradientUnits="userSpaceOnUse">
<stop stop-color="#0E1017"/>
<stop offset="0.5" stop-color="#56566B"/>
<stop offset="1" stop-color="#0E1017"/>
</linearGradient>
<linearGradient id="paint14_linear_3840_610" x1="14.6592" y1="1299.68" x2="1689.84" y2="1299.68" gradientUnits="userSpaceOnUse">
<stop stop-color="#0E1017"/>
<stop offset="0.5" stop-color="#56566B"/>
<stop offset="1" stop-color="#0E1017"/>
</linearGradient>
<linearGradient id="paint15_linear_3840_610" x1="14.2726" y1="1346.3" x2="1689.03" y2="1346.3" gradientUnits="userSpaceOnUse">
<stop stop-color="#0E1017"/>
<stop offset="0.5" stop-color="#56566B"/>
<stop offset="1" stop-color="#0E1017"/>
</linearGradient>
<linearGradient id="paint16_linear_3840_610" x1="13.8808" y1="1392.94" x2="1688.2" y2="1392.94" gradientUnits="userSpaceOnUse">
<stop stop-color="#0E1017"/>
<stop offset="0.5" stop-color="#56566B"/>
<stop offset="1" stop-color="#0E1017"/>
</linearGradient>
<linearGradient id="paint17_linear_3840_610" x1="13.4946" y1="1439.59" x2="1687.38" y2="1439.59" gradientUnits="userSpaceOnUse">
<stop stop-color="#0E1017"/>
<stop offset="0.5" stop-color="#56566B"/>
<stop offset="1" stop-color="#0E1017"/>
</linearGradient>
<linearGradient id="paint18_linear_3840_610" x1="13.108" y1="1486.26" x2="1686.57" y2="1486.26" gradientUnits="userSpaceOnUse">
<stop stop-color="#0E1017"/>
<stop offset="0.5" stop-color="#56566B"/>
<stop offset="1" stop-color="#0E1017"/>
</linearGradient>
<linearGradient id="paint19_linear_3840_610" x1="12.7206" y1="1532.94" x2="1685.75" y2="1532.94" gradientUnits="userSpaceOnUse">
<stop stop-color="#0E1017"/>
<stop offset="0.5" stop-color="#56566B"/>
<stop offset="1" stop-color="#0E1017"/>
</linearGradient>
<linearGradient id="paint20_linear_3840_610" x1="12.3344" y1="1579.63" x2="1684.93" y2="1579.63" gradientUnits="userSpaceOnUse">
<stop stop-color="#0E1017"/>
<stop offset="0.5" stop-color="#56566B"/>
<stop offset="1" stop-color="#0E1017"/>
</linearGradient>
<linearGradient id="paint21_linear_3840_610" x1="11.9454" y1="1626.33" x2="1684.11" y2="1626.33" gradientUnits="userSpaceOnUse">
<stop stop-color="#0E1017"/>
<stop offset="0.5" stop-color="#56566B"/>
<stop offset="1" stop-color="#0E1017"/>
</linearGradient>
<linearGradient id="paint22_linear_3840_610" x1="11.5592" y1="1673.06" x2="1683.29" y2="1673.06" gradientUnits="userSpaceOnUse">
<stop stop-color="#0E1017"/>
<stop offset="0.5" stop-color="#56566B"/>
<stop offset="1" stop-color="#0E1017"/>
</linearGradient>
<linearGradient id="paint23_linear_3840_610" x1="11.1725" y1="1719.8" x2="1682.48" y2="1719.8" gradientUnits="userSpaceOnUse">
<stop stop-color="#0E1017"/>
<stop offset="0.5" stop-color="#56566B"/>
<stop offset="1" stop-color="#0E1017"/>
</linearGradient>
<linearGradient id="paint24_linear_3840_610" x1="10.7851" y1="1766.54" x2="1681.66" y2="1766.54" gradientUnits="userSpaceOnUse">
<stop stop-color="#0E1017"/>
<stop offset="0.5" stop-color="#56566B"/>
<stop offset="1" stop-color="#0E1017"/>
</linearGradient>
<linearGradient id="paint25_linear_3840_610" x1="10.392" y1="1806.63" x2="1680.83" y2="1806.63" gradientUnits="userSpaceOnUse">
<stop stop-color="#0E1017"/>
<stop offset="0.5" stop-color="#56566B"/>
<stop offset="1" stop-color="#0E1017"/>
</linearGradient>
<linearGradient id="paint26_linear_3840_610" x1="10.0054" y1="1836.3" x2="1680.01" y2="1836.3" gradientUnits="userSpaceOnUse">
<stop stop-color="#0E1017"/>
<stop offset="0.5" stop-color="#56566B"/>
<stop offset="1" stop-color="#0E1017"/>
</linearGradient>
<linearGradient id="paint27_linear_3840_610" x1="9.62006" y1="1865.99" x2="1679.2" y2="1865.99" gradientUnits="userSpaceOnUse">
<stop stop-color="#0E1017"/>
<stop offset="0.5" stop-color="#56566B"/>
<stop offset="1" stop-color="#0E1017"/>
</linearGradient>
<linearGradient id="paint28_linear_3840_610" x1="9.23506" y1="1895.69" x2="1678.38" y2="1895.69" gradientUnits="userSpaceOnUse">
<stop stop-color="#0E1017"/>
<stop offset="0.5" stop-color="#56566B"/>
<stop offset="1" stop-color="#0E1017"/>
</linearGradient>
<linearGradient id="paint29_linear_3840_610" x1="8.84303" y1="1925.42" x2="1677.56" y2="1925.42" gradientUnits="userSpaceOnUse">
<stop stop-color="#0E1017"/>
<stop offset="0.5" stop-color="#56566B"/>
<stop offset="1" stop-color="#0E1017"/>
</linearGradient>
<linearGradient id="paint30_linear_3840_610" x1="8.45568" y1="1955.16" x2="1676.73" y2="1955.16" gradientUnits="userSpaceOnUse">
<stop stop-color="#0E1017"/>
<stop offset="0.5" stop-color="#56566B"/>
<stop offset="1" stop-color="#0E1017"/>
</linearGradient>
<linearGradient id="paint31_linear_3840_610" x1="8.06912" y1="1984.93" x2="1675.93" y2="1984.93" gradientUnits="userSpaceOnUse">
<stop stop-color="#0E1017"/>
<stop offset="0.5" stop-color="#56566B"/>
<stop offset="1" stop-color="#0E1017"/>
</linearGradient>
<linearGradient id="paint32_linear_3840_610" x1="7.68256" y1="2014.72" x2="1675.1" y2="2014.72" gradientUnits="userSpaceOnUse">
<stop stop-color="#0E1017"/>
<stop offset="0.5" stop-color="#56566B"/>
<stop offset="1" stop-color="#0E1017"/>
</linearGradient>
<linearGradient id="paint33_linear_3840_610" x1="7.29016" y1="2044.53" x2="1674.27" y2="2044.53" gradientUnits="userSpaceOnUse">
<stop stop-color="#0E1017"/>
<stop offset="0.5" stop-color="#56566B"/>
<stop offset="1" stop-color="#0E1017"/>
</linearGradient>
<linearGradient id="paint34_linear_3840_610" x1="6.9036" y1="2074.35" x2="1673.46" y2="2074.35" gradientUnits="userSpaceOnUse">
<stop stop-color="#0E1017"/>
<stop offset="0.5" stop-color="#56566B"/>
<stop offset="1" stop-color="#0E1017"/>
</linearGradient>
<linearGradient id="paint35_linear_3840_610" x1="6.51704" y1="2104.2" x2="1672.65" y2="2104.2" gradientUnits="userSpaceOnUse">
<stop stop-color="#0E1017"/>
<stop offset="0.5" stop-color="#56566B"/>
<stop offset="1" stop-color="#0E1017"/>
</linearGradient>
<linearGradient id="paint36_linear_3840_610" x1="6.13205" y1="2134.07" x2="1671.82" y2="2134.07" gradientUnits="userSpaceOnUse">
<stop stop-color="#0E1017"/>
<stop offset="0.5" stop-color="#56566B"/>
<stop offset="1" stop-color="#0E1017"/>
</linearGradient>
<linearGradient id="paint37_linear_3840_610" x1="5.7412" y1="2163.97" x2="1671" y2="2163.97" gradientUnits="userSpaceOnUse">
<stop stop-color="#0E1017"/>
<stop offset="0.5" stop-color="#56566B"/>
<stop offset="1" stop-color="#0E1017"/>
</linearGradient>
<linearGradient id="paint38_linear_3840_610" x1="5.35346" y1="2193.88" x2="1670.18" y2="2193.88" gradientUnits="userSpaceOnUse">
<stop stop-color="#0E1017"/>
<stop offset="0.5" stop-color="#56566B"/>
<stop offset="1" stop-color="#0E1017"/>
</linearGradient>
<linearGradient id="paint39_linear_3840_610" x1="4.96808" y1="2223.82" x2="1669.37" y2="2223.82" gradientUnits="userSpaceOnUse">
<stop stop-color="#0E1017"/>
<stop offset="0.5" stop-color="#56566B"/>
<stop offset="1" stop-color="#0E1017"/>
</linearGradient>
<linearGradient id="paint40_linear_3840_610" x1="4.58153" y1="2268.73" x2="1668.55" y2="2268.73" gradientUnits="userSpaceOnUse">
<stop stop-color="#0E1017"/>
<stop offset="0.5" stop-color="#56566B"/>
<stop offset="1" stop-color="#0E1017"/>
</linearGradient>
<linearGradient id="paint41_linear_3840_610" x1="4.19341" y1="2314.91" x2="1667.73" y2="2314.91" gradientUnits="userSpaceOnUse">
<stop stop-color="#0E1017"/>
<stop offset="0.5" stop-color="#56566B"/>
<stop offset="1" stop-color="#0E1017"/>
</linearGradient>
<linearGradient id="paint42_linear_3840_610" x1="3.8045" y1="2361.08" x2="1666.91" y2="2361.08" gradientUnits="userSpaceOnUse">
<stop stop-color="#0E1017"/>
<stop offset="0.5" stop-color="#56566B"/>
<stop offset="1" stop-color="#0E1017"/>
</linearGradient>
<linearGradient id="paint43_linear_3840_610" x1="3.41521" y1="2407.25" x2="1666.09" y2="2407.25" gradientUnits="userSpaceOnUse">
<stop stop-color="#0E1017"/>
<stop offset="0.5" stop-color="#56566B"/>
<stop offset="1" stop-color="#0E1017"/>
</linearGradient>
<linearGradient id="paint44_linear_3840_610" x1="3.03139" y1="2453.43" x2="1665.28" y2="2453.43" gradientUnits="userSpaceOnUse">
<stop stop-color="#0E1017"/>
<stop offset="0.5" stop-color="#56566B"/>
<stop offset="1" stop-color="#0E1017"/>
</linearGradient>
<linearGradient id="paint45_linear_3840_610" x1="2.64483" y1="2499.6" x2="1664.45" y2="2499.6" gradientUnits="userSpaceOnUse">
<stop stop-color="#0E1017"/>
<stop offset="0.5" stop-color="#56566B"/>
<stop offset="1" stop-color="#0E1017"/>
</linearGradient>
<linearGradient id="paint46_linear_3840_610" x1="2.2528" y1="2545.77" x2="1663.63" y2="2545.77" gradientUnits="userSpaceOnUse">
<stop stop-color="#0E1017"/>
<stop offset="0.5" stop-color="#56566B"/>
<stop offset="1" stop-color="#0E1017"/>
</linearGradient>
<linearGradient id="paint47_linear_3840_610" x1="1.86469" y1="2591.95" x2="1662.82" y2="2591.95" gradientUnits="userSpaceOnUse">
<stop stop-color="#0E1017"/>
<stop offset="0.5" stop-color="#56566B"/>
<stop offset="1" stop-color="#0E1017"/>
</linearGradient>
<linearGradient id="paint48_linear_3840_610" x1="1.47931" y1="2638.13" x2="1661.99" y2="2638.13" gradientUnits="userSpaceOnUse">
<stop stop-color="#0E1017"/>
<stop offset="0.5" stop-color="#56566B"/>
<stop offset="1" stop-color="#0E1017"/>
</linearGradient>
<linearGradient id="paint49_linear_3840_610" x1="1.09431" y1="2684.3" x2="1661.18" y2="2684.3" gradientUnits="userSpaceOnUse">
<stop stop-color="#0E1017"/>
<stop offset="0.5" stop-color="#56566B"/>
<stop offset="1" stop-color="#0E1017"/>
</linearGradient>
<linearGradient id="paint50_linear_3840_610" x1="0.701902" y1="2730.48" x2="1660.36" y2="2730.48" gradientUnits="userSpaceOnUse">
<stop stop-color="#0E1017"/>
<stop offset="0.5" stop-color="#56566B"/>
<stop offset="1" stop-color="#0E1017"/>
</linearGradient>
<linearGradient id="paint51_linear_3840_610" x1="0.315345" y1="2776.65" x2="1659.54" y2="2776.65" gradientUnits="userSpaceOnUse">
<stop stop-color="#0E1017"/>
<stop offset="0.5" stop-color="#56566B"/>
<stop offset="1" stop-color="#0E1017"/>
</linearGradient>
</defs>
</svg>
