<svg preserveAspectRatio="xMidYMid meet" width="14" height="14" viewBox="0 0 12 10" fill="none" xmlns="http://www.w3.org/2000/svg">
<path id="Subtract" fill-rule="evenodd" clip-rule="evenodd" d="M4.46711 8.84203L3.79167 9.91667C2.1292 9.53093 1.06944 8.61571 0 7.51123C0 5.52014 0.193881 3.54045 0.854208 1.67459C2.13798 0.483174 3.69943 0.141607 4.66667 0V0.585612C2.92089 1.09109 2.33105 1.98014 2.33105 1.98014C3.10232 1.49338 4.375 1.09109 5.83333 1.09109C7.29167 1.09109 8.54069 1.47626 9.33333 1.97786C9.33333 1.97786 8.76333 1.09109 7 0.587891V0.00227865C7.97642 0.132687 9.51296 0.488594 10.828 1.67459C11.5013 3.53253 11.6665 5.53608 11.6665 7.51084C10.4987 8.67459 9.3848 9.53093 7.875 9.91667L7.19942 8.84169C7.19942 8.84169 8.76762 8.09126 9.74089 6.92583C8.32435 7.99546 6.41667 8.09126 5.83333 8.09126C5.25 8.09126 3.46404 8.03739 1.90396 6.91413C2.91281 8.09126 4.46711 8.84203 4.46711 8.84203ZM4.66667 5.17481C4.66667 5.81914 4.27492 6.34147 3.79167 6.34147C3.30842 6.34147 2.91667 5.81914 2.91667 5.17481C2.91667 4.53047 3.30842 4.00814 3.79167 4.00814C4.27492 4.00814 4.66667 4.53047 4.66667 5.17481ZM7.875 6.34147C8.35825 6.34147 8.75 5.81914 8.75 5.17481C8.75 4.53047 8.35825 4.00814 7.875 4.00814C7.39175 4.00814 7 4.53047 7 5.17481C7 5.81914 7.39175 6.34147 7.875 6.34147Z" fill="var(--fill-0, black)"/>
</svg>
