<svg preserveAspectRatio="xMidYMid meet" width="152" height="40" viewBox="0 0 151.333 40" fill="none" xmlns="http://www.w3.org/2000/svg">
<g id="2_AXIS_ROBOTICS_Full_White">
<g id="_&#229;&#155;&#190;&#229;&#177;&#130;_1" clip-path="url(#clip0_3840_671)">
<path id="Vector" d="M52.6333 15.4099L51.782 17.8961H50L53.8641 7.38761H55.7013L59.5532 17.8961H57.7773L56.9261 15.4099H52.6333ZM56.4545 13.9585L54.8072 8.99206H54.7766L53.117 13.9585H56.4545Z" fill="var(--fill-0, white)"/>
<path id="Vector_2" d="M63.0506 7.38761H64.949L67.3312 11.2701H67.3434L69.7378 7.38761H71.6362L68.3416 12.501L71.8996 17.8961H69.8542L67.3434 13.7932H67.3312L64.8326 17.8961H62.7873L66.3452 12.5316L63.0506 7.38761Z" fill="var(--fill-0, white)"/>
<path id="Vector_3" d="M77.6616 7.3877V17.8962H75.9102V7.3877H77.6616Z" fill="var(--fill-0, white)"/>
<path id="Vector_4" d="M90.3882 15.0484C90.3882 16.7263 89.1267 18.1226 86.4812 18.1226C83.8357 18.1226 81.9557 16.7814 81.8516 14.4054H83.603C83.6887 15.7465 84.6012 16.6222 86.4873 16.6222C88.0428 16.6222 88.649 15.9302 88.649 15.1219C88.649 13.8726 87.7549 13.6338 85.679 13.1194C84.0317 12.7091 82.2557 12.0783 82.2557 10.0758C82.2557 8.20805 83.6948 7.16699 85.9913 7.16699C88.2877 7.16699 89.9718 8.37339 90.1188 10.5351H88.3673C88.2081 9.31646 87.4426 8.66733 85.9852 8.66733C84.7359 8.66733 83.9888 9.13887 83.9888 9.9166C83.9888 11.0618 84.9747 11.27 86.4444 11.6374C88.6919 12.213 90.4005 12.6968 90.4005 15.0484H90.3882Z" fill="var(--fill-0, white)"/>
<path id="Vector_5" d="M50.8086 22.085H55.2912C57.453 22.085 58.8492 23.1873 58.8492 25.0979C58.8492 26.5676 58.1021 27.4188 56.8957 27.7128V27.7434C59.3207 28.1966 58.4389 32.3118 58.9962 32.4894V32.5935H57.159C56.6752 32.1526 57.6612 28.5395 55.132 28.5395H52.56V32.5935H50.8086V22.085ZM52.56 27.0392H54.9238C55.9955 27.0392 57.1162 26.8309 57.1162 25.3061C57.1162 23.7813 56.0016 23.5731 54.9238 23.5731H52.56V27.0392Z" fill="var(--fill-0, white)"/>
<path id="Vector_6" d="M62.8281 27.3329C62.8281 24.1729 64.8123 21.8643 67.9844 21.8643C71.1566 21.8643 73.1407 24.1729 73.1407 27.3329C73.1407 30.4928 71.1443 32.8137 67.9844 32.8137C64.8245 32.8137 62.8281 30.4928 62.8281 27.3329ZM71.4015 27.3329C71.4015 25.214 70.4033 23.3646 67.9905 23.3646C65.5777 23.3646 64.5673 25.214 64.5673 27.3329C64.5673 29.4517 65.5839 31.3134 67.9905 31.3134C70.3972 31.3134 71.4015 29.464 71.4015 27.3329Z" fill="var(--fill-0, white)"/>
<path id="Vector_7" d="M83.7737 26.9227V26.9533C84.876 27.1432 85.8191 27.9515 85.8191 29.5253C85.8191 31.5523 84.4229 32.5995 82.2489 32.5995H77.4845V22.091H81.9978C84.1595 22.091 85.4088 23.0463 85.4088 24.7365C85.4088 26.0286 84.6433 26.6349 83.7798 26.9288L83.7737 26.9227ZM81.9366 26.4328C83.1858 26.4328 83.6574 25.9306 83.6574 25.0059C83.6574 24.0812 83.0817 23.5668 82.0407 23.5668H79.236V26.4328H81.9427H81.9366ZM79.236 31.1114H82.1142C83.6145 31.1114 84.0677 30.4072 84.0677 29.4212C84.0677 28.3496 83.4063 27.7433 82.304 27.7433H79.2298V31.1114H79.236Z" fill="var(--fill-0, white)"/>
<path id="Vector_8" d="M89.6211 27.3329C89.6211 24.1729 91.6052 21.8643 94.7774 21.8643C97.9495 21.8643 99.9337 24.1729 99.9337 27.3329C99.9337 30.4928 97.9373 32.8137 94.7774 32.8137C91.6175 32.8137 89.6211 30.4928 89.6211 27.3329ZM98.1945 27.3329C98.1945 25.214 97.1963 23.3646 94.7835 23.3646C92.3707 23.3646 91.3603 25.214 91.3603 27.3329C91.3603 29.4517 92.3768 31.3134 94.7835 31.3134C97.1902 31.3134 98.1945 29.464 98.1945 27.3329Z" fill="var(--fill-0, white)"/>
<path id="Vector_9" d="M106.45 23.573H103.082V22.091H111.551V23.573H108.201V32.5995H106.45V23.573Z" fill="var(--fill-0, white)"/>
<path id="Vector_10" d="M117.46 22.0849V32.5934H115.709V22.0849H117.46Z" fill="var(--fill-0, white)"/>
<path id="Vector_11" d="M126.781 23.3649C124.516 23.3649 123.621 25.2633 123.621 27.3331C123.621 29.403 124.516 31.3136 126.781 31.3136C128.735 31.3136 129.488 30.0337 129.604 28.7538H131.356C131.123 31.1177 129.506 32.8078 126.83 32.8078C123.805 32.8078 121.895 30.4991 121.895 27.327C121.895 24.1548 123.805 21.8584 126.83 21.8584C129.488 21.8584 131.105 23.5486 131.356 25.698H129.604C129.415 24.6386 128.723 23.3587 126.781 23.3587V23.3649Z" fill="var(--fill-0, white)"/>
<path id="Vector_12" d="M143.517 29.7457C143.517 31.4237 142.256 32.8199 139.61 32.8199C136.965 32.8199 135.085 31.4788 134.98 29.1027H136.732C136.818 30.4438 137.73 31.3196 139.616 31.3196C141.172 31.3196 141.778 30.6276 141.778 29.8192C141.778 28.5699 140.884 28.3311 138.808 27.8167C137.161 27.4064 135.385 26.7757 135.385 24.7732C135.385 22.9054 136.824 21.8643 139.12 21.8643C141.417 21.8643 143.101 23.0707 143.248 25.2325H141.496C141.337 24.0138 140.572 23.3647 139.114 23.3647C137.865 23.3647 137.118 23.8362 137.118 24.6139C137.118 25.7591 138.104 25.9673 139.573 26.3347C141.821 26.9104 143.529 27.3942 143.529 29.7457H143.517Z" fill="var(--fill-0, white)"/>
</g>
<path id="Union" d="M20.818 16.9462L25.8585 8.21591L27.2757 9.03409L22.2354 17.7638L36.949 9.26935L37.7672 10.6866L23.0534 19.1815H40V20.8178H23.0524L31.7839 25.859L30.9657 27.2761L22.2349 22.2353L30.7301 36.9492L29.3129 37.7674L20.818 23.0538V40H19.1816V23.0533L14.141 31.7841L12.7239 30.9659L17.7647 22.2347L3.0506 30.7303L2.23242 29.313L16.9462 20.8178H0V19.1815H16.9453L8.21591 14.1415L9.03391 12.7243L17.7642 17.7647L9.26918 3.05078L10.6864 2.2326L19.1816 16.9467V0H20.818V16.9462Z" fill="var(--fill-0, white)"/>
</g>
<defs>
<clipPath id="clip0_3840_671">
<rect width="93.5173" height="25.6467" fill="white" transform="translate(50 7.16699)"/>
</clipPath>
</defs>
</svg>
